# xmcd
#
# Track frame offsets:
#	150
#	17453
#	34476
#	52010
#	69773
#	84558
#	103264
#	118502
#	137778
#	153263
#	169996
#	185589
#	201591
#	220330
#	237852
#
# Disc length: 3453 seconds
#
# Revision: 1
# Processed by: cddbd v1.5.1PL2 Copyright (c) Steve Scherf et al.
# Submitted via: EasyCDDAExtractor 9.1.3.1
#
DISCID=d80d7b0f
DTITLE=LeAnn Rimes - Whatever We Wanna
DYEAR=2006
DGENRE=Country
TTITLE0=Satsfied
TTITLE1=And It Feels Like
TTITLE2=For The First Time
TTITLE3=Save Myself
TTITLE4=A Little More Time
TTITLE5=Rumour 'bout A Revolution
TTITLE6=Destructive
TTITLE7=Strong
TTITLE8=Whatever We Wanna
TTITLE9=Everybody's Someone Leann Rimes and Brian Mcfadden
TTITLE10=Headphones
TTITLE11=Long Night
TTITLE12=This Life
TTITLE13=Break Me Down
TTITLE14=Some People
EXTD=
EXTT0=
EXTT1=
EXTT2=
EXTT3=
EXTT4=
EXTT5=
EXTT6=
EXTT7=
EXTT8=
EXTT9=
EXTT10=
EXTT11=
EXTT12=
EXTT13=
EXTT14=
PLAYORDER=
